<svg xmlns="http://www.w3.org/2000/svg" viewBox="0 0 24 24" width="24" height="24">
  <path d="M19.14,12.94a7.43,7.43,0,0,0,0-1.88l2.03-1.58a.5.5,0,0,0,.12-.64l-1.92-3.32a.5.5,0,0,0-.61-.22l-2.39.96a7.07,7.07,0,0,0-1.63-.94l-.36-2.54A.5.5,0,0,0,13.9,2h-3.8a.5.5,0,0,0-.5.42l-.36,2.54a7.07,7.07,0,0,0-1.63.94l-2.39-.96a.5.5,0,0,0-.61.22L2.69,8.84a.5.5,0,0,0,.12.64l2.03,1.58a7.43,7.43,0,0,0,0,1.88L2.81,14.52a.5.5,0,0,0-.12.64l1.92,3.32a.5.5,0,0,0,.61.22l2.39-.96a7.07,7.07,0,0,0,1.63.94l.36,2.54a.5.5,0,0,0,.5.42h3.8a.5.5,0,0,0,.5-.42l.36-2.54a7.07,7.07,0,0,0,1.63-.94l2.39.96a.5.5,0,0,0,.61-.22l1.92-3.32a.5.5,0,0,0-.12-.64ZM12,15.5A3.5,3.5,0,1,1,15.5,12,3.5,3.5,0,0,1,12,15.5Z" fill="currentColor"/>
</svg>
